<svg width="34" height="34" viewBox="0 0 34 34" fill="none" xmlns="http://www.w3.org/2000/svg">
<g clip-path="url(#clip0)">
<path d="M5.28402 10.3956L5.05672 9.09763L2.20356 6.24447L6.31866 2.12936L9.17156 4.98226L10.4699 5.2097C14.8722 1.97932 19.1356 0.407227 23.4893 0.407227C23.5151 0.407227 23.5413 0.407227 23.5671 0.407356L23.9677 0.409041L25.0604 1.50312L24.2357 2.18361C21.9609 4.06053 19.8117 6.14232 17.5363 8.34629C17.0207 8.84576 16.4909 9.35896 15.9583 9.87074L16.3614 12.1721L33.6667 29.4774L29.5516 33.5923L12.2465 16.2874L9.94494 15.8842C9.43303 16.4169 8.91969 16.9469 8.4201 17.4627C6.21619 19.7379 4.13459 21.8869 2.25793 24.1615L1.57666 24.9872L0.483429 23.8927L0.481743 23.4928C0.462818 19.1123 2.03452 14.824 5.28402 10.3956ZM4.95333 6.24447L5.96115 7.25228L7.32641 5.88702L6.3186 4.87921L4.95333 6.24447ZM30.9167 29.4774L15.4568 14.0175L14.0916 15.3827L29.5516 30.8425L30.9167 29.4774ZM9.25848 13.7898L12.3866 14.3378L14.412 12.3124L13.864 9.18422C13.864 9.18422 19.2635 3.96635 20.8049 2.57918C17.6774 3.1106 14.5435 4.57633 11.2983 7.01655L10.9614 7.26985L9.03156 6.93171L7.00616 8.95711L7.34417 10.887L7.09087 11.2239C4.65045 14.4694 3.18479 17.6028 2.65357 20.7305C4.04041 19.1894 9.25848 13.7898 9.25848 13.7898Z" fill="white"/>
</g>
<defs>
<clipPath id="clip0">
<rect width="33.1852" height="33.1852" fill="white" transform="matrix(-1 0 0 1 33.6667 0.407227)"/>
</clipPath>
</defs>
</svg>
