<svg width="34" height="34" viewBox="0 0 34 34" fill="none" xmlns="http://www.w3.org/2000/svg">
<g clip-path="url(#clip0)">
<path d="M28.3826 10.3956L28.61 9.09763L31.4631 6.24447L27.348 2.12936L24.4951 4.98226L23.1968 5.2097C18.7945 1.97932 14.531 0.407227 10.1773 0.407227C10.1515 0.407227 10.1253 0.407227 10.0996 0.407356L9.69899 0.409041L8.60627 1.50312L9.43098 2.18361C11.7058 4.06053 13.855 6.14232 16.1303 8.34629C16.6459 8.84576 17.1758 9.35896 17.7084 9.87074L17.3053 12.1721L0 29.4774L4.11511 33.5923L21.4201 16.2874L23.7217 15.8842C24.2336 16.4169 24.747 16.9469 25.2466 17.4627C27.4505 19.7379 29.5321 21.8869 31.4087 24.1615L32.09 24.9872L33.1832 23.8927L33.1849 23.4928C33.2038 19.1123 31.6322 14.824 28.3826 10.3956ZM28.7133 6.24447L27.7055 7.25228L26.3403 5.88702L27.3481 4.87921L28.7133 6.24447ZM2.74997 29.4774L18.2099 14.0175L19.5751 15.3827L4.11511 30.8425L2.74997 29.4774ZM24.4082 13.7898L21.2801 14.3378L19.2547 12.3124L19.8026 9.18422C19.8026 9.18422 14.4032 3.96635 12.8618 2.57918C15.9892 3.1106 19.1232 4.57633 22.3684 7.01655L22.7052 7.26985L24.6351 6.93171L26.6605 8.95711L26.3225 10.887L26.5758 11.2239C29.0162 14.4694 30.4819 17.6028 31.0131 20.7305C29.6263 19.1894 24.4082 13.7898 24.4082 13.7898Z" fill="white"/>
</g>
<defs>
<clipPath id="clip0">
<rect width="33.1852" height="33.1852" fill="white" transform="translate(0 0.407227)"/>
</clipPath>
</defs>
</svg>
