<svg width="94" height="94" viewBox="0 0 94 94" fill="none" xmlns="http://www.w3.org/2000/svg">
<path d="M59.0764 44.8885C59.0764 47.4645 57.1762 49.5756 54.7693 49.5756C52.4046 49.5756 50.4622 47.4645 50.4622 44.8885C50.4622 42.3127 52.3626 40.2015 54.7693 40.2015C57.1764 40.2015 59.0764 42.3127 59.0764 44.8885ZM39.3568 40.2015C36.9497 40.2015 35.0495 42.3127 35.0495 44.8885C35.0495 47.4645 36.9921 49.5756 39.3568 49.5756C41.7635 49.5756 43.6637 47.4645 43.6637 44.8885C43.7061 42.3127 41.7635 40.2015 39.3568 40.2015ZM83.9479 13.4721V89.2262C73.3097 79.8251 76.7121 82.9372 64.3546 71.449L66.5929 79.2607H18.7078C13.9364 79.2607 10.0518 75.3762 10.0518 70.5619V13.4721C10.0518 8.6581 13.9364 4.77344 18.7078 4.77344H75.291C80.063 4.77344 83.9479 8.6581 83.9479 13.4721ZM71.9131 53.5025C71.9131 39.9058 65.8327 28.8846 65.8327 28.8846C59.7522 24.3243 53.967 24.451 53.967 24.451L53.3758 25.1268C60.5545 27.3222 63.8904 30.4894 63.8904 30.4894C53.8596 24.9919 42.0771 24.991 32.3472 29.2648C30.7844 29.9825 29.8556 30.4894 29.8556 30.4894C29.8556 30.4894 33.3604 27.1535 40.9612 24.9577L40.5391 24.4508C40.5391 24.4508 34.7539 24.3243 28.6733 28.8844C28.6733 28.8844 22.5929 39.9056 22.5929 53.5023C22.5929 53.5023 26.1399 59.6252 35.4716 59.9208C35.4716 59.9208 37.0342 58.0208 38.3008 56.416C32.938 54.8114 30.9115 51.4336 30.9115 51.4336C31.5326 51.8678 32.5569 52.432 32.6428 52.4889C39.7699 56.4808 49.8942 57.7881 58.9922 53.967C60.4699 53.4182 62.1169 52.6158 63.848 51.4756C63.848 51.4756 61.7367 54.9384 56.205 56.5006C57.472 58.105 58.9922 59.9208 58.9922 59.9208C68.324 59.6254 71.9131 53.5025 71.9131 53.5025Z" fill="white"/>
</svg>
