<svg width="75" height="76" viewBox="0 0 75 76" fill="none" xmlns="http://www.w3.org/2000/svg">
<g clip-path="url(#clip0)">
<path d="M12.5 0C5.575 0 0 5.64924 0 12.6665V63.3332C0 70.3505 5.575 76.0001 12.5 76.0001H62.5C69.425 76.0001 75 70.3505 75 63.3332V12.6665C75 5.64924 69.425 0 62.5 0H12.5ZM59.0881 18.1032C60.7247 18.2373 61.2037 19.8146 60.8093 21.6655L53.5034 55.9548C53.0282 58.1848 51.3753 58.4601 49.3835 56.9877L39.0625 49.3555L33.3923 54.9033C32.5028 55.7722 30.85 56.0247 30.3589 54.5011L26.1047 41.2838L16.0462 38.0678C12.1679 36.8264 14.9458 35.0657 16.2599 34.5486L57.0558 18.4988C57.8688 18.1792 58.5428 18.0644 59.0883 18.1087L59.0881 18.1032ZM51.8494 25.2406C51.6016 25.2885 51.3231 25.3927 51.0681 25.5554L28.0517 40.3375C27.9142 40.4212 27.7614 40.4092 27.9052 40.8568L31.6283 52.4349L32.3852 44.5674C32.4007 44.4154 32.407 44.3161 32.5742 44.1653L52.0078 26.489C53.0814 25.5124 52.5918 25.1064 51.8491 25.2399L51.8494 25.2406Z" fill="white"/>
</g>
<defs>
<clipPath id="clip0">
<rect width="75" height="76" fill="white"/>
</clipPath>
</defs>
</svg>
