<svg width="82" height="82" viewBox="0 0 82 82" fill="none" xmlns="http://www.w3.org/2000/svg">
<path fill-rule="evenodd" clip-rule="evenodd" d="M69.5844 2.5625H12.4155C7.00203 2.5625 2.5625 7.00187 2.5625 12.4155V69.5844C2.5625 74.9983 7.00203 79.4375 12.4155 79.4375H69.5844C74.9981 79.4375 79.4375 74.9983 79.4375 69.5845V12.4155C79.4375 7.00187 74.9981 2.5625 69.5844 2.5625ZM58.4618 43.145C58.7162 45.5542 67.1575 50.6033 66.5262 54.4876C66.2421 56.2281 63.321 55.9202 60.73 56.0022C58.3371 56.0793 55.9969 55.9232 54.9373 55.4985C53.1861 54.7978 48.5874 48.7093 47.3766 48.9476C44.6862 49.4715 45.6604 55.1045 44.8582 55.4985C43.7089 56.0621 39.9784 55.8936 38.5637 55.7483C30.983 54.4749 26.5885 49.3949 22.4379 42.8975C17.3632 34.9543 14.3614 28.9905 15.6356 28.2815C17.0363 27.5036 20.9577 27.6689 24.9576 27.7754C26.1484 27.8113 29.6097 36.4299 30.4987 37.8609C34.1072 43.6343 35.2369 39.3698 35.2874 38.8674C36.2655 28.5104 33.73 28.9776 32.2632 28.7846C33.369 25.4267 41.079 26.0137 41.079 26.0137C41.079 26.0137 43.6583 26.6377 44.6064 27.2732C44.9964 27.5377 45.4338 28.3734 45.3612 31.0554C45.2582 35.0938 44.8482 40.602 46.6229 40.6291C47.9918 40.6491 50.1605 37.4293 51.9137 34.0782C53.4643 31.1132 54.6583 28.2387 55.187 28.031C55.7597 27.8054 58.2363 27.7898 60.7298 27.7753C63.1716 27.7637 65.633 27.7434 66.2738 28.2814C67.5653 29.3712 65.3194 32.9063 63.2481 35.8401C61.5525 38.2522 58.2801 41.4271 58.4618 43.145Z" fill="white"/>
</svg>
