<svg width="11" height="11" viewBox="0 0 11 11" fill="none" xmlns="http://www.w3.org/2000/svg">
<path d="M10.8484 9.27454L6.54144 0.680053C6.44705 0.476891 6.29666 0.304956 6.10799 0.18448C5.91932 0.0640038 5.70021 0 5.47644 0C5.25267 0 5.03356 0.0640038 4.84489 0.18448C4.65622 0.304956 4.50584 0.476891 4.41144 0.680053L0.135773 9.27454C0.0408953 9.45458 -0.00569603 9.6562 0.000555661 9.85967C0.00680736 10.0631 0.0656881 10.2615 0.17144 10.4354C0.277191 10.6092 0.426193 10.7526 0.603873 10.8516C0.781553 10.9505 0.981828 11.0015 1.18511 10.9997H9.79909C10.0037 11.0043 10.2059 10.9553 10.3858 10.8575C10.5657 10.7597 10.7169 10.6166 10.8245 10.4422C10.9321 10.2679 10.9924 10.0685 10.9993 9.86366C11.0063 9.65884 10.9597 9.45576 10.8641 9.27454H10.8484ZM10.128 10.0234C10.094 10.0808 10.046 10.1286 9.98844 10.1622C9.93088 10.1958 9.86571 10.2142 9.79909 10.2155H1.18511C1.11584 10.2169 1.04745 10.1998 0.986915 10.1661C0.926381 10.1323 0.875875 10.0831 0.840554 10.0234C0.806188 9.96381 0.788097 9.8962 0.788097 9.82737C0.788097 9.75855 0.806188 9.69094 0.840554 9.63133L5.14754 1.03293C5.17641 0.959796 5.22657 0.897045 5.2915 0.852825C5.35644 0.808604 5.43315 0.784959 5.51168 0.784959C5.59021 0.784959 5.66692 0.808604 5.73186 0.852825C5.7968 0.897045 5.84695 0.959796 5.87582 1.03293L10.1828 9.63133C10.2092 9.69568 10.2181 9.76591 10.2084 9.83481C10.1988 9.90372 10.171 9.96881 10.128 10.0234Z" fill="#FF6157"/>
<path d="M6 4H5V7H6V4Z" fill="#FF6157"/>
<path d="M5.5 9C5.77614 9 6 8.77614 6 8.5C6 8.22386 5.77614 8 5.5 8C5.22386 8 5 8.22386 5 8.5C5 8.77614 5.22386 9 5.5 9Z" fill="#FF6157"/>
</svg>
