<svg width="20" height="21" viewBox="0 0 20 21" fill="none" xmlns="http://www.w3.org/2000/svg">
<path d="M18.5714 9.25112H11.4286V2.10826C11.4286 1.31969 10.7886 0.679688 10 0.679688C9.21143 0.679688 8.57143 1.31969 8.57143 2.10826V9.25112H1.42857C0.64 9.25112 0 9.89112 0 10.6797C0 11.4683 0.64 12.1083 1.42857 12.1083H8.57143V19.2511C8.57143 20.0397 9.21143 20.6797 10 20.6797C10.7886 20.6797 11.4286 20.0397 11.4286 19.2511V12.1083H18.5714C19.36 12.1083 20 11.4683 20 10.6797C20 9.89112 19.36 9.25112 18.5714 9.25112Z" fill="white"/>
</svg>
