<svg width="29" height="29" viewBox="0 0 29 29" fill="none" xmlns="http://www.w3.org/2000/svg">
<path d="M18.2262 13.8486C18.2262 14.6433 17.64 15.2946 16.8974 15.2946C16.1679 15.2946 15.5686 14.6433 15.5686 13.8486C15.5686 13.0539 16.1549 12.4026 16.8974 12.4026C17.64 12.4026 18.2262 13.0539 18.2262 13.8486ZM12.1425 12.4026C11.3999 12.4026 10.8136 13.0539 10.8136 13.8486C10.8136 14.6433 11.4129 15.2946 12.1425 15.2946C12.885 15.2946 13.4712 14.6433 13.4712 13.8486C13.4843 13.0539 12.885 12.4026 12.1425 12.4026ZM25.8993 4.15629V27.5272C22.6173 24.6269 23.667 25.587 19.8546 22.0428L20.5451 24.4528H5.77205C4.30002 24.4528 3.10156 23.2544 3.10156 21.7691V4.15629C3.10156 2.67111 4.30002 1.47266 5.77205 1.47266H23.2286C24.7008 1.47266 25.8993 2.67111 25.8993 4.15629ZM22.1864 16.5061C22.1864 12.3113 20.3106 8.91121 20.3106 8.91121C18.4347 7.50432 16.6499 7.5434 16.6499 7.5434L16.4675 7.75189C18.6822 8.4292 19.7114 9.40631 19.7114 9.40631C16.6167 7.71026 12.9817 7.70998 9.97994 9.02851C9.49782 9.24992 9.21127 9.40631 9.21127 9.40631C9.21127 9.40631 10.2925 8.37715 12.6375 7.69973L12.5072 7.54334C12.5072 7.54334 10.7224 7.50432 8.84651 8.91116C8.84651 8.91116 6.97063 12.3113 6.97063 16.506C6.97063 16.506 8.06492 18.395 10.9439 18.4862C10.9439 18.4862 11.4259 17.9 11.8167 17.4049C10.1622 16.9099 9.53701 15.8678 9.53701 15.8678C9.72863 16.0018 10.0446 16.1758 10.0711 16.1934C12.2699 17.4249 15.3934 17.8283 18.2002 16.6494C18.6561 16.4801 19.1642 16.2325 19.6983 15.8808C19.6983 15.8808 19.0469 16.9491 17.3403 17.431C17.7312 17.926 18.2002 18.4862 18.2002 18.4862C21.0792 18.3951 22.1864 16.5061 22.1864 16.5061Z" fill="white"/>
</svg>
