<svg width="23" height="23" viewBox="0 0 23 23" fill="none" xmlns="http://www.w3.org/2000/svg">
<g clip-path="url(#clip0)">
<path d="M3.83333 0C1.70967 0 0 1.70964 0 3.83328V19.1666C0 21.2903 1.70967 23 3.83333 23H19.1667C21.2903 23 23 21.2903 23 19.1666V3.83328C23 1.70964 21.2903 0 19.1667 0H3.83333ZM18.1204 5.47861C18.6222 5.51918 18.7691 5.99652 18.6482 6.55667L16.4077 16.9337C16.262 17.6086 15.7551 17.6919 15.1443 17.2463L11.9792 14.9365L10.2403 16.6155C9.96754 16.8784 9.46067 16.9548 9.31005 16.4938L8.00545 12.4938L4.92082 11.5205C3.7315 11.1448 4.58338 10.612 4.98637 10.4555L17.4971 5.59832C17.7464 5.50161 17.9531 5.46687 18.1204 5.48027L18.1204 5.47861ZM15.9005 7.6386C15.8245 7.65309 15.7391 7.68462 15.6609 7.73388L8.60254 12.2074C8.56037 12.2327 8.5135 12.2291 8.55759 12.3646L9.69935 15.8685L9.93145 13.4875C9.93623 13.4415 9.93815 13.4114 9.98943 13.3658L15.9491 8.01641C16.2783 7.72085 16.1281 7.59799 15.9004 7.63838L15.9005 7.6386Z" fill="white"/>
</g>
<defs>
<clipPath id="clip0">
<rect width="23" height="23" fill="white"/>
</clipPath>
</defs>
</svg>
