<svg width="25" height="25" viewBox="0 0 25 25" fill="none" xmlns="http://www.w3.org/2000/svg">
<path fill-rule="evenodd" clip-rule="evenodd" d="M21.2147 0.78125H3.78521C2.13477 0.78125 0.78125 2.13472 0.78125 3.78521V21.2147C0.78125 22.8653 2.13477 24.2188 3.78521 24.2188H21.2147C22.8653 24.2188 24.2188 22.8653 24.2188 21.2148V3.78521C24.2188 2.13472 22.8653 0.78125 21.2147 0.78125ZM17.8237 13.154C17.9013 13.8885 20.4749 15.4278 20.2824 16.6121C20.1958 17.1427 19.3052 17.0488 18.5152 17.0738C17.7857 17.0974 17.0722 17.0498 16.7492 16.9203C16.2153 16.7066 14.8132 14.8504 14.4441 14.923C13.6238 15.0828 13.9208 16.8001 13.6763 16.9203C13.3259 17.0921 12.1885 17.0407 11.7572 16.9964C9.44604 16.6082 8.10625 15.0594 6.84082 13.0785C5.29365 10.6568 4.37847 8.83857 4.76694 8.62241C5.19399 8.38525 6.38955 8.43564 7.60903 8.46812C7.97207 8.47905 9.02734 11.1067 9.29839 11.543C10.3985 13.3031 10.743 12.003 10.7583 11.8498C11.0565 8.69219 10.2835 8.83462 9.83633 8.77578C10.1735 7.75205 12.5241 7.93101 12.5241 7.93101C12.5241 7.93101 13.3104 8.12124 13.5995 8.31499C13.7184 8.39565 13.8518 8.65044 13.8296 9.46811C13.7982 10.6993 13.6732 12.3787 14.2143 12.3869C14.6316 12.393 15.2928 11.4114 15.8273 10.3897C16.3001 9.48574 16.6641 8.60937 16.8253 8.54604C16.9999 8.47725 17.755 8.47251 18.5152 8.46807C19.2596 8.46455 20.0101 8.45835 20.2054 8.62236C20.5992 8.95464 19.9145 10.0324 19.283 10.9269C18.766 11.6623 17.7683 12.6302 17.8237 13.154Z" fill="white"/>
</svg>
